<svg xmlns="http://www.w3.org/2000/svg" viewBox="0 0 24 30" x="0px" y="0px"><title>Refresh</title><g><path d="M13.469,22.531A10.525,10.525,0,0,1,8.68,21.38,1,1,0,0,1,9.594,19.6a8.4,8.4,0,0,0,3.875.93A8.531,8.531,0,1,0,4.938,12a1,1,0,0,1-2,0A10.531,10.531,0,1,1,13.469,22.531Z"/><path d="M3.994,14.458a1,1,0,0,1-.707-.292l-3-3A1,1,0,0,1,1.7,9.751l2.293,2.293L6.287,9.751A1,1,0,0,1,7.7,11.166l-3,3A1,1,0,0,1,3.994,14.458Z"/></g><text x="0" y="39" fill="#000000" font-size="5px" font-weight="bold" font-family="'Helvetica Neue', Helvetica, Arial-Unicode, Arial, Sans-serif">Created by DailyPM</text><text x="0" y="44" fill="#000000" font-size="5px" font-weight="bold" font-family="'Helvetica Neue', Helvetica, Arial-Unicode, Arial, Sans-serif">from the Noun Project</text></svg>