<svg xmlns="http://www.w3.org/2000/svg" viewBox="0 0 24 30" x="0px" y="0px"><title>Pause in circle</title><g data-name="Pause in circle"><path d="M12,24A12,12,0,1,1,24,12,12.013,12.013,0,0,1,12,24ZM12,2A10,10,0,1,0,22,12,10.011,10.011,0,0,0,12,2Z"/><path d="M10,16.993a1,1,0,0,1-1-1V8.019a1,1,0,1,1,2,0v7.974A1,1,0,0,1,10,16.993Z"/><path d="M14,16.993a1,1,0,0,1-1-1V8.019a1,1,0,1,1,2,0v7.974A1,1,0,0,1,14,16.993Z"/></g><text x="0" y="39" fill="#000000" font-size="5px" font-weight="bold" font-family="'Helvetica Neue', Helvetica, Arial-Unicode, Arial, Sans-serif">Created by DailyPM</text><text x="0" y="44" fill="#000000" font-size="5px" font-weight="bold" font-family="'Helvetica Neue', Helvetica, Arial-Unicode, Arial, Sans-serif">from the Noun Project</text></svg>