<svg xmlns="http://www.w3.org/2000/svg" xmlns:xlink="http://www.w3.org/1999/xlink" version="1.1" x="0px" y="0px" viewBox="0 0 100 125" enable-background="new 0 0 100 100" xml:space="preserve"><path d="M70.5,11.8c-4.8-0.1-9.2,1.7-12.6,5.1L57.9,17c-1.2,1.2-1.2,3.2,0,4.4l7.9,7.9L27.6,67.6l-5.7-5.7l32.3-32.3  c1.2-1.2,1.2-3.2,0-4.4c-1.2-1.2-3.2-1.2-4.4,0L15.3,59.6c-0.5,0.5-0.8,1.2-0.9,1.9l-2,23.2c-0.1,0.9,0.3,1.9,1,2.5  c0.6,0.6,1.4,0.9,2.1,0.9c0.1,0,0.3,0,0.4,0l10.8-1.4c1.7-0.2,2.9-1.8,2.7-3.5c-0.2-1.7-1.8-2.9-3.5-2.7l-7,0.9L20,68.8l15.5,15.5  c0.6,0.6,1.4,0.9,2.2,0.9s1.6-0.3,2.2-0.9l42.5-42.5c6.7-6.7,7-17.7,0.6-24.5C79.7,13.8,75.3,11.9,70.5,11.8z M37.7,77.7L32,72  l38.2-38.2l5.7,5.7L37.7,77.7z M80,34.8L64.7,19.5c1.7-1,3.6-1.5,5.7-1.4c3.1,0,5.9,1.3,8,3.5C81.8,25.1,82.3,30.5,80,34.8z"/><text x="0" y="115" fill="#000000" font-size="5px" font-weight="bold" font-family="'Helvetica Neue', Helvetica, Arial-Unicode, Arial, Sans-serif">Created by Gregor Cresnar</text><text x="0" y="120" fill="#000000" font-size="5px" font-weight="bold" font-family="'Helvetica Neue', Helvetica, Arial-Unicode, Arial, Sans-serif">from the Noun Project</text></svg>